<svg width="19" height="8" viewBox="0 0 19 8" fill="none" xmlns="http://www.w3.org/2000/svg">
<path d="M2.04254 0.333344H16.624C17.2184 0.333344 17.4339 0.395227 17.6512 0.511432C17.8685 0.627637 18.039 0.798162 18.1552 1.01545C18.2714 1.23273 18.3333 1.44825 18.3333 2.0426V5.95742C18.3333 6.55177 18.2714 6.76729 18.1552 6.98457C18.039 7.20186 17.8685 7.37238 17.6512 7.48859C17.4339 7.60479 17.2184 7.66668 16.624 7.66668H2.04254C1.44819 7.66668 1.23267 7.60479 1.01539 7.48859C0.798101 7.37238 0.627576 7.20186 0.511371 6.98457C0.395166 6.76729 0.333282 6.55177 0.333282 5.95742V2.0426C0.333282 1.44825 0.395166 1.23273 0.511371 1.01545C0.627576 0.798162 0.798101 0.627637 1.01539 0.511432C1.23267 0.395227 1.44819 0.333344 2.04254 0.333344Z" fill="black"/>
</svg>
