<svg width="17" height="12" viewBox="0 0 17 12" fill="none" xmlns="http://www.w3.org/2000/svg">
<path d="M0.999969 7.33332H1.99997C2.55225 7.33332 2.99997 7.78104 2.99997 8.33332V10.3333C2.99997 10.8856 2.55225 11.3333 1.99997 11.3333H0.999969C0.447684 11.3333 -3.05176e-05 10.8856 -3.05176e-05 10.3333V8.33332C-3.05176e-05 7.78104 0.447684 7.33332 0.999969 7.33332ZM5.66663 5.33332H6.66663C7.21891 5.33332 7.66663 5.78104 7.66663 6.33332V10.3333C7.66663 10.8856 7.21891 11.3333 6.66663 11.3333H5.66663C5.11434 11.3333 4.66663 10.8856 4.66663 10.3333V6.33332C4.66663 5.78104 5.11434 5.33332 5.66663 5.33332ZM10.3333 2.99999H11.3333C11.8856 2.99999 12.3333 3.4477 12.3333 3.99999V10.3333C12.3333 10.8856 11.8856 11.3333 11.3333 11.3333H10.3333C9.78103 11.3333 9.33331 10.8856 9.33331 10.3333V3.99999C9.33331 3.4477 9.78103 2.99999 10.3333 2.99999ZM15 0.666656H16C16.5523 0.666656 17 1.11437 17 1.66666V10.3333C17 10.8856 16.5523 11.3333 16 11.3333H15C14.4477 11.3333 14 10.8856 14 10.3333V1.66666C14 1.11437 14.4477 0.666656 15 0.666656Z" fill="black"/>
</svg>
