<svg width="16" height="12" viewBox="0 0 16 12" fill="none" xmlns="http://www.w3.org/2000/svg">
<path d="M7.66706 2.61517C9.89179 2.61526 12.0315 3.46937 13.6438 5.00096C13.7652 5.11921 13.9593 5.11772 14.0789 4.99762L15.2395 3.82729C15.3 3.76638 15.3338 3.68387 15.3333 3.59802C15.3328 3.51217 15.298 3.43006 15.2368 3.36986C11.0049 -0.682369 4.32854 -0.682369 0.0966255 3.36986C0.0353225 3.43002 0.000548301 3.5121 -2.36992e-05 3.59795C-0.000581699 3.6838 0.0331297 3.76634 0.0936347 3.82729L1.25455 4.99762C1.37406 5.1179 1.5683 5.11939 1.68964 5.00096C3.3022 3.46927 5.44211 2.61516 7.66706 2.61517ZM7.66706 6.42275C8.88941 6.42267 10.0681 6.87663 10.9742 7.6964C11.0967 7.81275 11.2898 7.81022 11.4092 7.69072L12.5685 6.52039C12.6296 6.459 12.6634 6.37572 12.6626 6.28919C12.6617 6.20265 12.6261 6.12008 12.5638 6.05995C9.80469 3.49554 5.53175 3.49554 2.77259 6.05995C2.71026 6.12008 2.67473 6.20269 2.6739 6.28926C2.67309 6.37582 2.70708 6.45909 2.76826 6.52039L3.92719 7.69072C4.04666 7.81022 4.2397 7.81275 4.36225 7.6964C5.26772 6.87717 6.44552 6.42325 7.66706 6.42275ZM9.8949 9.21582C9.9569 9.15503 9.99104 9.07136 9.98926 8.98458C9.98749 8.89781 9.94997 8.81561 9.88554 8.75739C8.60488 7.67512 6.72921 7.67512 5.44855 8.75739C5.38408 8.81556 5.34648 8.89774 5.34464 8.98451C5.3428 9.07129 5.37689 9.15498 5.43885 9.21582L7.4445 11.2378C7.50328 11.2972 7.58344 11.3307 7.66706 11.3307C7.75068 11.3307 7.83081 11.2972 7.88959 11.2378L9.8949 9.21582Z" fill="black"/>
</svg>
